<?xml version="1.0" encoding="UTF-8" standalone="no"?>
<!-- Created with Inkscape (http://www.inkscape.org/) -->

<svg
   xmlns:dc="http://purl.org/dc/elements/1.1/"
   xmlns:cc="http://creativecommons.org/ns#"
   xmlns:rdf="http://www.w3.org/1999/02/22-rdf-syntax-ns#"
   xmlns:svg="http://www.w3.org/2000/svg"
   xmlns="http://www.w3.org/2000/svg"
   xmlns:sodipodi="http://sodipodi.sourceforge.net/DTD/sodipodi-0.dtd"
   xmlns:inkscape="http://www.inkscape.org/namespaces/inkscape"
   width="309.61417"
   height="177.16534"
   id="svg2968"
   version="1.1"
   inkscape:version="0.47pre4 r22446"
   sodipodi:docname="simple_logo.svg">
  <defs
     id="defs2970">
    <inkscape:perspective
       sodipodi:type="inkscape:persp3d"
       inkscape:vp_x="0 : 526.18109 : 1"
       inkscape:vp_y="0 : 1000 : 0"
       inkscape:vp_z="744.09448 : 526.18109 : 1"
       inkscape:persp3d-origin="372.04724 : 350.78739 : 1"
       id="perspective2976" />
    <inkscape:perspective
       id="perspective2960"
       inkscape:persp3d-origin="0.5 : 0.33333333 : 1"
       inkscape:vp_z="1 : 0.5 : 1"
       inkscape:vp_y="0 : 1000 : 0"
       inkscape:vp_x="0 : 0.5 : 1"
       sodipodi:type="inkscape:persp3d" />
  </defs>
  <sodipodi:namedview
     id="base"
     pagecolor="#ffffff"
     bordercolor="#666666"
     borderopacity="1.0"
     inkscape:pageopacity="0.0"
     inkscape:pageshadow="2"
     inkscape:zoom="0.35"
     inkscape:cx="25"
     inkscape:cy="520"
     inkscape:document-units="px"
     inkscape:current-layer="layer1"
     showgrid="false"
     units="mm"
     inkscape:window-width="1908"
     inkscape:window-height="999"
     inkscape:window-x="0"
     inkscape:window-y="27"
     inkscape:window-maximized="1" />
  <metadata
     id="metadata2973">
    <rdf:RDF>
      <cc:Work
         rdf:about="">
        <dc:format>image/svg+xml</dc:format>
        <dc:type
           rdf:resource="http://purl.org/dc/dcmitype/StillImage" />
        <dc:title></dc:title>
      </cc:Work>
    </rdf:RDF>
  </metadata>
  <g
     inkscape:label="Layer 1"
     inkscape:groupmode="layer"
     id="layer1"
     transform="translate(0,-875.19684)">
    <g
       id="g3423-9-4"
       transform="matrix(1.1083238,0,0,1.1083238,-1436.3937,-5.0501621)"
       inkscape:export-filename="/Users/jas/Documents/Documents/Cycling/Cycle Forum/Graphics/Logos/Star and Crescent/Bitmap/simple_logo.png"
       inkscape:export-xdpi="300"
       inkscape:export-ydpi="300">
      <path
         sodipodi:nodetypes="cscccszcs"
         id="path7625-1-6-5-9-6-4"
         d="m 1373.2271,798.58972 c -36.1416,0.52434 -72.9803,34.12896 -72.9803,75.66011 0,41.96109 41.679,76.07225 72.9803,75.56845 4.4223,-0.0738 8.0153,-0.15491 11.6819,0 31.1764,-1.01378 113.9752,-16.32788 138.8063,-20.21323 26.1819,-4.08818 47.4024,-23.57527 47.4024,-52.64509 0,-28.44266 -16.1249,-47.73686 -45.7239,-52.61394 -29.5989,-4.87709 -125.2411,-25.50852 -138.5646,-25.7563 -7.8636,-0.24777 -6.8438,-0.095 -13.6021,0 z"
         style="color:#000000;fill:#e6e6e6;stroke:#89a02c;stroke-width:8.48134041;stroke-linecap:square;stroke-linejoin:miter;stroke-miterlimit:4;stroke-opacity:1;stroke-dashoffset:0;marker:none;visibility:visible;display:inline;overflow:visible;enable-background:accumulate" />
      <path
         id="path7980-4-3-3-7"
         d="m 1374.7232,810.4081 c 15.4426,-0.29294 28.8318,4.22886 40.4544,13.6603 6.0388,4.9003 11.8984,12.15418 10.7656,13.31709 -0.3419,0.35102 -3.5659,-0.94914 -7.1547,-2.88308 -5.7396,-3.09289 -7.8294,-3.52532 -17.4857,-3.5352 -9.5321,-0.01 -11.8965,0.4633 -17.8535,3.46656 -9.0676,4.57142 -17.0804,13.49788 -20.5281,22.89303 -3.8868,10.59152 -3.1957,27.07105 1.5379,36.51903 4.1327,8.24869 10.1252,14.41696 18.2547,18.80867 5.6401,3.04695 7.6823,3.42675 17.9537,3.43224 10.2861,0.006 12.3535,-0.37845 18.1878,-3.46656 3.615,-1.91344 6.8333,-3.21313 7.1548,-2.88308 0.3215,0.33001 -2.6067,4.02776 -6.4861,8.20305 -17.0236,18.322 -44.7544,24.1099 -65.9308,13.76328 -15.5455,-7.59544 -29.4459,-25.22127 -34.0018,-43.17757 -5.4379,-21.43249 1.6763,-45.50772 18.2881,-61.88327 10.5095,-10.36012 20.9469,-15.33728 33.7344,-16.09721 1.0479,-0.0623 2.0797,-0.11776 3.1093,-0.13728 z"
         style="color:#000000;fill:#ff6600;stroke:none;stroke-width:9.94705677;marker:none;visibility:visible;display:inline;overflow:visible;enable-background:accumulate" />
      <path
         id="path7984-8-8-8-6"
         d="m 1519.3857,835.54749 c -21.6339,0 -39.1563,18.09155 -39.1563,40.40625 0,22.3147 17.5224,40.375 39.1563,40.375 21.6339,0 39.1875,-18.0603 39.1875,-40.375 0,-22.3147 -17.5536,-40.40625 -39.1875,-40.40625 z m 0.7812,8.375 c 0.7747,0.0934 0.992,2.0669 0.8438,6.15625 -0.092,2.52701 0.6929,6.69221 1.8125,9.5 2.3134,5.80176 4.2482,6.14588 8.5312,1.53125 3.1453,-3.38875 5.1657,-4.51059 9.5625,-5.34375 3.6613,-0.69379 4.239,0.21539 1.2813,2.0625 -1.0871,0.6789 -2.8563,2.97436 -3.9375,5.09375 -1.0813,2.11939 -3.1383,4.62932 -4.5625,5.5625 -4.2579,2.78988 -2.0684,3.94259 6.125,3.25 6.2795,-0.53081 7.9227,-0.31437 11.3437,1.46875 3.9895,2.07945 5.1275,3.75128 2.75,4.03125 -0.6875,0.081 -3.5,0.26218 -6.25,0.40625 -2.75,0.14408 -7.6683,0.87119 -10.9375,1.625 l -5.9375,1.375 2.9375,2.71875 c 1.6136,1.49616 3.2496,2.71875 3.625,2.71875 0.3755,0 1.2159,1.6875 1.875,3.75 0.6591,2.0625 1.579,4.19625 2.0625,4.71875 1.2008,1.29747 1.1281,3.53125 -0.125,3.53125 -0.5623,0 -2.9248,-1.71738 -5.25,-3.84375 -2.3252,-2.12638 -5.7711,-4.66176 -7.6562,-5.625 -3.2942,-1.68319 -3.4907,-1.6698 -4.8125,0.125 -0.9612,1.30511 -1.1679,3.26408 -0.7188,6.5625 0.5132,3.76901 0.2424,5.27973 -1.3125,7.5 -1.0709,1.52916 -2.1535,3.45209 -2.4062,4.25 -0.8692,2.74415 -2.2048,-1.06491 -1.9688,-5.625 0.1408,-2.7187 -0.5148,-5.66587 -1.7812,-8.0625 -1.0974,-2.07672 -2.215,-4.56875 -2.5,-5.53125 -0.7796,-2.63265 -2.0447,-2.17837 -7.5938,2.75 -3.6661,3.256 -5.9035,4.5 -8.125,4.5 l -3.0625,0 3.0938,-3.53125 c 1.7069,-1.94413 3.0937,-4.10251 3.0937,-4.8125 0,-0.70999 1.1107,-2.34918 2.4688,-3.625 1.358,-1.27582 2.2592,-2.6862 1.9687,-3.15625 -0.721,-1.16662 -6.7153,-1.10006 -9.9375,0.125 -2.1663,0.82365 -3.4146,0.53114 -7.0937,-1.625 -5.4995,-3.2229 -5.2223,-4.98343 0.7187,-4.5625 2.4158,0.17116 5.95,-0.13103 7.875,-0.6875 1.925,-0.55647 4.7375,-1.28109 6.25,-1.59375 3.5631,-0.73657 3.5133,-2.60763 -0.1875,-5.34375 -1.8087,-1.33727 -3.3807,-3.70922 -4.0312,-6.125 -0.5859,-2.17579 -1.4962,-4.23181 -2.0313,-4.5625 -1.5079,-0.93196 -1.1619,-2.5 0.5625,-2.5 0.8523,0 3.1053,1.50366 5,3.34375 1.8947,1.84009 5.2864,4.17522 7.5313,5.1875 5.0837,2.29242 6.2372,1.13365 5.5312,-5.59375 -0.4041,-3.85106 -0.02,-5.30382 2.4063,-8.96875 1.4167,-2.14004 2.3662,-3.19766 2.9687,-3.125 z"
         style="color:#000000;fill:#ff6600;stroke:none;stroke-width:14.36305237;marker:none;visibility:visible;display:inline;overflow:visible;enable-background:accumulate" />
    </g>
  </g>
</svg>
