<?xml version="1.0" encoding="UTF-8" standalone="no"?>
<!-- Created with Inkscape (http://www.inkscape.org/) -->

<svg
   xmlns:dc="http://purl.org/dc/elements/1.1/"
   xmlns:cc="http://creativecommons.org/ns#"
   xmlns:rdf="http://www.w3.org/1999/02/22-rdf-syntax-ns#"
   xmlns:svg="http://www.w3.org/2000/svg"
   xmlns="http://www.w3.org/2000/svg"
   xmlns:sodipodi="http://sodipodi.sourceforge.net/DTD/sodipodi-0.dtd"
   xmlns:inkscape="http://www.inkscape.org/namespaces/inkscape"
   width="8900"
   height="1100"
   id="svg3387"
   version="1.1">
  <g
     inkscape:label="Layer 1"
     inkscape:groupmode="layer"
     id="layer1"
>
    <g
       transform="matrix(13.784246,0,0,13.784246,-393.85404,-2661.3049)"
       id="g3338">
      <g
         id="g4102">
        <g
           style="font-size:56.05726624px;font-style:normal;font-variant:normal;font-weight:normal;font-stretch:normal;text-align:start;line-height:125%;writing-mode:lr-tb;text-anchor:start;fill:#ff6600;fill-opacity:1;stroke:#ff6600;stroke-width:1.44533849;stroke-linecap:square;stroke-opacity:1;font-family:HelveticaNeue LT 47 LightCn;-inkscape-font-specification:HelveticaNeue LT 47 LightCn"
           id="text2871-1-30-1-8-3">
          <path
             d="m 193.33867,198.79372 0,16.59295 6.11025,0 c 5.68045,2e-5 8.52068,-2.76546 8.5207,-8.29647 -2e-5,-5.53095 -2.84025,-8.29644 -8.5207,-8.29648 l -6.11025,0 m -3.58766,36.9978 0,-40.02489 10.81905,0 c 7.3248,4e-5 10.9872,3.77456 10.98722,11.32357 -2e-5,7.54907 -4.07351,11.32358 -12.22048,11.32357 l -5.99813,0 0,17.37775 -3.58766,0"
             style="fill:#ff6600;stroke:#ff6600"
             id="path3003" />
          <path
             d="m 215.22728,220.88029 c 0,-10.35189 3.41949,-15.52784 10.25848,-15.52787 6.83897,3e-5 10.25846,5.17598 10.25848,15.52787 -2e-5,10.38928 -3.41951,15.58392 -10.25848,15.58392 -6.83899,0 -10.25848,-5.19464 -10.25848,-15.58392 m 3.58767,0 c -1e-5,8.52071 2.2236,12.78106 6.67081,12.78105 4.4472,1e-5 6.6708,-4.26034 6.67082,-12.78105 -2e-5,-8.48331 -2.22362,-12.72498 -6.67082,-12.725 -4.44721,2e-5 -6.67082,4.24169 -6.67081,12.725"
             style="fill:#ff6600;stroke:#ff6600"
             id="path3005" />
          <path
             d="m 240.66502,235.79152 0,-29.76641 3.36344,0 0,4.65275 0.11211,0 c 1.38274,-3.55026 3.88663,-5.32541 7.51168,-5.32544 0.41107,3e-5 0.80347,0.0561 1.1772,0.16818 l 0,3.36343 c -0.56059,-0.11209 -1.10248,-0.16814 -1.62566,-0.16817 -2.01808,3e-5 -3.68111,0.6914 -4.9891,2.07412 -1.4575,1.53225 -2.18624,3.66243 -2.18623,6.39053 l 0,18.61101 -3.36344,0"
             style="fill:#ff6600;stroke:#ff6600"
             id="path3007" />
          <path
             d="m 258.79855,230.91454 0,-22.08657 -4.09218,0 0,-2.80286 4.09218,0 0,-8.24042 3.36344,0 0,8.24042 5.26938,0 0,2.80286 -5.26938,0 0,21.35782 c -10e-6,2.09281 1.06508,3.13921 3.19526,3.13921 0.67268,0 1.36405,-0.11211 2.07412,-0.33634 l 0,2.80286 c -0.37373,0.22423 -1.15853,0.33634 -2.3544,0.33634 -2.31704,0 -3.9427,-0.37371 -4.87698,-1.12114 -0.9343,-0.74743 -1.40144,-2.11149 -1.40144,-4.09218"
             style="fill:#ff6600;stroke:#ff6600"
             id="path3009" />
          <path
             d="m 280.55928,222.84229 -4.70881,-1.84989 c -3.81189,-1.49484 -5.71784,-3.84925 -5.71784,-7.06321 0,-5.71782 2.95235,-8.57674 8.85705,-8.57677 5.45623,3e-5 8.18434,2.76552 8.18436,8.29648 l 0,0.84086 -3.36343,0 0,-0.84086 c -2e-5,-3.66238 -1.62568,-5.49359 -4.87699,-5.49361 -3.62504,2e-5 -5.43756,1.68174 -5.43755,5.04515 -10e-6,2.31705 1.34537,3.98009 4.03612,4.9891 l 4.87698,1.84989 c 3.69977,1.42013 5.54965,3.9427 5.54967,7.56773 -2e-5,2.65338 -0.74745,4.76487 -2.24229,6.33447 -1.60699,1.68172 -3.92402,2.52258 -6.9511,2.52258 -3.13921,0 -5.41887,-0.71006 -6.83898,-2.13018 -1.53224,-1.45749 -2.29835,-3.83057 -2.29835,-7.11927 l 0,-0.95298 3.36343,0 0,0.78481 c 0,4.40984 1.90594,6.61476 5.71785,6.61475 1.79382,1e-5 3.21393,-0.46714 4.26035,-1.40143 1.08375,-0.97165 1.62564,-2.27965 1.62566,-3.92401 -2e-5,-2.61599 -1.34539,-4.4472 -4.03613,-5.49361"
             style="fill:#ff6600;stroke:#ff6600"
             id="path3011" />
          <path
             d="m 293.26326,235.79152 0,-29.76641 3.02709,0 0,4.14824 0.11212,0 c 1.53222,-3.21392 4.0548,-4.8209 7.56773,-4.82093 1.75645,3e-5 3.17656,0.48586 4.26035,1.45749 1.08376,0.93432 1.73776,2.18626 1.96201,3.75584 l 0.11211,0 c 1.4201,-3.47552 3.94267,-5.2133 7.56773,-5.21333 4.59667,3e-5 6.89501,2.55998 6.89505,7.67985 l 0,22.75925 -3.36344,0 0,-22.25474 c -3e-5,-3.58763 -1.55095,-5.38147 -4.65275,-5.38149 -1.71912,2e-5 -3.15792,0.71008 -4.31641,2.13017 -1.15854,1.42014 -1.7378,3.25135 -1.73778,5.49362 l 0,20.01244 -3.36343,0 0,-22.25474 c -2e-5,-3.58763 -1.55094,-5.38147 -4.65276,-5.38149 -1.7191,2e-5 -3.1579,0.71008 -4.31641,2.13017 -1.15852,1.42014 -1.73778,3.25135 -1.73777,5.49362 l 0,20.01244 -3.36344,0"
             style="fill:#ff6600;stroke:#ff6600"
             id="path3013" />
          <path
             d="m 330.00881,220.88029 c -10e-6,-10.35189 3.41948,-15.52784 10.25848,-15.52787 6.83896,3e-5 10.25845,5.17598 10.25847,15.52787 -2e-5,10.38928 -3.41951,15.58392 -10.25847,15.58392 -6.839,0 -10.25849,-5.19464 -10.25848,-15.58392 m 3.58766,0 c 0,8.52071 2.2236,12.78106 6.67082,12.78105 4.44719,1e-5 6.67079,-4.26034 6.67081,-12.78105 -2e-5,-8.48331 -2.22362,-12.72498 -6.67081,-12.725 -4.44722,2e-5 -6.67082,4.24169 -6.67082,12.725"
             style="fill:#ff6600;stroke:#ff6600"
             id="path3015" />
          <path
             d="m 355.44654,228.50407 0,-22.47896 3.36344,0 0,20.96542 c -10e-6,2.39178 0.41108,4.11087 1.23326,5.15727 0.82216,1.00903 2.13016,1.51355 3.92401,1.51354 1.90593,1e-5 3.45685,-0.69137 4.65275,-2.07412 1.23324,-1.42011 1.84987,-3.27 1.84989,-5.54967 l 0,-20.01244 3.36344,0 0,29.76641 -3.0271,0 0,-4.14824 -0.11211,0 c -1.64436,3.21395 -4.18562,4.82093 -7.62379,4.82093 -5.08253,0 -7.62379,-2.65338 -7.62379,-7.96014"
             style="fill:#ff6600;stroke:#ff6600"
             id="path3017" />
          <path
             d="m 381.6428,230.91454 0,-22.08657 -4.09218,0 0,-2.80286 4.09218,0 0,-8.24042 3.36344,0 0,8.24042 5.26938,0 0,2.80286 -5.26938,0 0,21.35782 c -10e-6,2.09281 1.06507,3.13921 3.19526,3.13921 0.67268,0 1.36405,-0.11211 2.07412,-0.33634 l 0,2.80286 c -0.37373,0.22423 -1.15853,0.33634 -2.35441,0.33634 -2.31704,0 -3.9427,-0.37371 -4.87698,-1.12114 -0.93429,-0.74743 -1.40143,-2.11149 -1.40143,-4.09218"
             style="fill:#ff6600;stroke:#ff6600"
             id="path3019" />
          <path
             d="m 393.98591,235.79152 0,-40.02489 3.36344,0 0,14.40672 0.11211,0 c 0.41108,-1.49483 1.27062,-2.67204 2.57863,-3.53161 1.34537,-0.85951 2.91497,-1.28929 4.70882,-1.28932 5.0825,3e-5 7.62376,2.65341 7.62378,7.96014 l 0,22.47896 -3.36343,0 0,-21.52599 c -2e-5,-4.07347 -1.70042,-6.11022 -5.10121,-6.11024 -1.98071,2e-5 -3.56899,0.71008 -4.76487,2.13017 -1.1959,1.38277 -1.79384,3.21398 -1.79383,5.49362 l 0,20.01244 -3.36344,0"
             style="fill:#ff6600;stroke:#ff6600"
             id="path3021" />
          <path
             d="m 453.04487,222.22566 3.58766,0 c -0.26162,4.55933 -1.42014,8.07225 -3.47555,10.53877 -2.01808,2.46652 -4.82094,3.69978 -8.40859,3.69978 -8.52071,0 -12.78106,-6.89504 -12.78105,-20.68513 -10e-6,-13.79006 4.26034,-20.6851 12.78105,-20.68514 3.84925,4e-5 6.78291,1.2333 8.801,3.69978 1.7938,2.20496 2.69072,5.08256 2.69074,8.63282 l -3.58766,0 c -2e-5,-2.80283 -0.6914,-5.04512 -2.07412,-6.72687 -1.38277,-1.71905 -3.32608,-2.5786 -5.82996,-2.57863 -6.12893,3e-5 -9.19339,5.88604 -9.19339,17.65804 0,11.77203 3.06446,17.65804 9.19339,17.65803 2.46651,1e-5 4.40982,-0.99034 5.82996,-2.97103 1.45747,-1.98068 2.27964,-4.72749 2.46652,-8.24042"
             style="fill:#ff6600;stroke:#ff6600"
             id="path3023" />
          <path
             d="m 467.36664,236.07181 -8.57676,-30.0467 3.58766,0 6.67082,25.78634 0.11211,0 5.99813,-25.78634 3.58766,0 -8.68887,32.17687 c -0.78482,2.91497 -1.73779,4.87698 -2.85892,5.88601 -1.08378,1.0464 -2.7655,1.5696 -5.04516,1.56961 -0.59794,-1e-5 -1.34537,-0.0374 -2.24229,-0.11212 l 0,-2.80286 c 0.97166,0.0747 1.7004,0.11211 2.18624,0.11211 2.16754,0 3.64371,-1.32669 4.42852,-3.98006 l 0.84086,-2.80286"
             style="fill:#ff6600;stroke:#ff6600"
             id="path3025" />
          <path
             d="m 496.86062,225.92544 3.36344,0 c -0.26162,3.21396 -1.23328,5.7739 -2.91498,7.67985 -1.64436,1.90594 -3.83059,2.85892 -6.5587,2.85892 -6.65213,0 -9.97819,-5.19464 -9.97819,-15.58392 0,-10.35189 3.41949,-15.52784 10.25848,-15.52787 5.79256,3e-5 8.85702,3.17661 9.19339,9.52974 l -3.36344,0 c -0.37373,-4.48456 -2.31705,-6.72685 -5.82995,-6.72687 -2.09282,2e-5 -3.66242,0.80351 -4.70881,2.41046 -1.30801,2.05546 -1.96201,5.51232 -1.96201,10.37059 0,5.04517 0.67268,8.55809 2.01806,10.53877 0.93428,1.45749 2.37309,2.18624 4.31641,2.18623 3.55028,1e-5 5.60571,-2.57863 6.1663,-7.7359"
             style="fill:#ff6600;stroke:#ff6600"
             id="path3027" />
          <path
             d="m 505.3393,235.79152 0,-40.02489 3.36344,0 0,40.02489 -3.36344,0"
             style="fill:#ff6600;stroke:#ff6600"
             id="path3029" />
          <path
             d="m 530.48361,225.92544 3.36344,0 c -0.26163,3.21396 -1.23328,5.7739 -2.91498,7.67985 -1.68174,1.90594 -3.90534,2.85892 -6.67082,2.85892 -6.65213,0 -9.97819,-5.19464 -9.97819,-15.58392 0,-10.35189 3.41949,-15.52784 10.25848,-15.52787 3.28868,3e-5 5.69914,1.17724 7.23139,3.53161 1.56958,2.31706 2.35438,5.96078 2.3544,10.93117 l 0,1.23326 -16.2566,0 0,1.40143 c -10e-6,7.47431 2.11148,11.21146 6.33447,11.21145 3.62502,1e-5 5.71782,-2.57863 6.27841,-7.7359 m -12.61288,-7.67985 12.66894,0 c -0.0374,-3.62501 -0.57928,-6.24101 -1.62566,-7.84801 -1.00905,-1.49484 -2.57865,-2.24227 -4.70881,-2.24229 -2.13019,2e-5 -3.6811,0.74745 -4.65276,2.24229 -1.08378,1.607 -1.64435,4.223 -1.68171,7.84801"
             style="fill:#ff6600;stroke:#ff6600"
             id="path3031" />
          <path
             d="m 552.62973,235.79152 0,-40.02489 19.84427,0 0,3.02709 -16.2566,0 0,14.57489 15.19152,0 0,3.0271 -15.19152,0 0,19.39581 -3.58767,0"
             style="fill:#ff6600;stroke:#ff6600"
             id="path3033" />
          <path
             d="m 575.14984,220.88029 c 0,-10.35189 3.41949,-15.52784 10.25848,-15.52787 6.83897,3e-5 10.25846,5.17598 10.25848,15.52787 -2e-5,10.38928 -3.41951,15.58392 -10.25848,15.58392 -6.83899,0 -10.25848,-5.19464 -10.25848,-15.58392 m 3.58767,0 c -1e-5,8.52071 2.22359,12.78106 6.67081,12.78105 4.4472,1e-5 6.6708,-4.26034 6.67082,-12.78105 -2e-5,-8.48331 -2.22362,-12.72498 -6.67082,-12.725 -4.44722,2e-5 -6.67082,4.24169 -6.67081,12.725"
             style="fill:#ff6600;stroke:#ff6600"
             id="path3035" />
          <path
             d="m 600.58758,235.79152 0,-29.76641 3.36344,0 0,4.65275 0.11211,0 c 1.38274,-3.55026 3.88663,-5.32541 7.51167,-5.32544 0.41108,3e-5 0.80348,0.0561 1.17721,0.16818 l 0,3.36343 c -0.56059,-0.11209 -1.10248,-0.16814 -1.62566,-0.16817 -2.01808,3e-5 -3.68111,0.6914 -4.9891,2.07412 -1.4575,1.53225 -2.18624,3.66243 -2.18623,6.39053 l 0,18.61101 -3.36344,0"
             style="fill:#ff6600;stroke:#ff6600"
             id="path3037" />
          <path
             d="m 616.24423,228.50407 0,-22.47896 3.36343,0 0,20.96542 c 0,2.39178 0.41108,4.11087 1.23326,5.15727 0.82217,1.00903 2.13017,1.51355 3.92401,1.51354 1.90593,1e-5 3.45685,-0.69137 4.65275,-2.07412 1.23325,-1.42011 1.84988,-3.27 1.84989,-5.54967 l 0,-20.01244 3.36344,0 0,29.76641 -3.02709,0 0,-4.14824 -0.11212,0 c -1.64436,3.21395 -4.18562,4.82093 -7.62379,4.82093 -5.08253,0 -7.62379,-2.65338 -7.62378,-7.96014"
             style="fill:#ff6600;stroke:#ff6600"
             id="path3039" />
          <path
             d="m 641.43144,235.79152 0,-29.76641 3.02709,0 0,4.14824 0.11211,0 c 1.53223,-3.21392 4.0548,-4.8209 7.56774,-4.82093 1.75644,3e-5 3.17656,0.48586 4.26035,1.45749 1.08375,0.93432 1.73775,2.18626 1.962,3.75584 l 0.11212,0 c 1.42009,-3.47552 3.94267,-5.2133 7.56773,-5.21333 4.59666,3e-5 6.89501,2.55998 6.89504,7.67985 l 0,22.75925 -3.36344,0 0,-22.25474 c -3e-5,-3.58763 -1.55094,-5.38147 -4.65275,-5.38149 -1.71911,2e-5 -3.15791,0.71008 -4.31641,2.13017 -1.15854,1.42014 -1.73779,3.25135 -1.73777,5.49362 l 0,20.01244 -3.36344,0 0,-22.25474 c -2e-5,-3.58763 -1.55093,-5.38147 -4.65275,-5.38149 -1.7191,2e-5 -3.1579,0.71008 -4.31641,2.13017 -1.15853,1.42014 -1.73778,3.25135 -1.73778,5.49362 l 0,20.01244 -3.36343,0"
             style="fill:#ff6600;stroke:#ff6600"
             id="path3041" />
        </g>
        <g
           style="font-size:29.40607452px;font-style:normal;font-variant:normal;font-weight:200;font-stretch:normal;text-align:start;line-height:125%;writing-mode:lr-tb;text-anchor:start;fill:#000000;stroke:none;font-family:HelveticaNeue LT 45 Light;-inkscape-font-specification:'HelveticaNeue LT 45 Light, Thin'"
           id="text2871-1-3-2-8-9-8">
          <path
             d="m 364.09169,263.34271 2.02902,0 3.70517,-12.76223 0.0588,0 3.73457,12.76223 2.02902,0 4.88141,-15.17353 -1.97021,0 -3.8816,12.99748 -0.0588,0 -3.70517,-12.99748 -2.08783,0 -3.70516,12.99748 -0.0588,0 -3.8816,-12.99748 -1.9702,0 4.8814,15.17353"
             style=""
             id="path3044" />
          <path
             d="m 385.85908,263.34271 2.02902,0 3.70517,-12.76223 0.0588,0 3.73457,12.76223 2.02902,0 4.88141,-15.17353 -1.97021,0 -3.8816,12.99748 -0.0588,0 -3.70517,-12.99748 -2.08783,0 -3.70517,12.99748 -0.0588,0 -3.8816,-12.99748 -1.97021,0 4.88141,15.17353"
             style=""
             id="path3046" />
          <path
             d="m 407.62647,263.34271 2.02902,0 3.70516,-12.76223 0.0588,0 3.73457,12.76223 2.02902,0 4.8814,-15.17353 -1.9702,0 -3.8816,12.99748 -0.0588,0 -3.70516,-12.99748 -2.08783,0 -3.70517,12.99748 -0.0588,0 -3.8816,-12.99748 -1.97021,0 4.88141,15.17353"
             style=""
             id="path3048" />
          <path
             d="m 427.99155,263.34271 0,-3.11704 -2.47011,0 0,3.11704 2.47011,0"
             style=""
             id="path3050" />
          <path
             d="m 444.79115,255.75595 c -1e-5,0.78416 -0.098,1.56833 -0.29406,2.35248 -0.17645,0.76456 -0.47051,1.4507 -0.88218,2.05843 -0.39209,0.60772 -0.9018,1.10763 -1.52912,1.49971 -0.62734,0.37247 -1.38209,0.55871 -2.26426,0.55871 -0.98021,0 -1.81338,-0.18624 -2.49952,-0.55871 -0.66654,-0.39208 -1.21546,-0.89199 -1.64674,-1.49971 -0.41169,-0.60773 -0.71555,-1.29387 -0.91159,-2.05843 -0.17644,-0.78415 -0.26466,-1.56832 -0.26465,-2.35248 -1e-5,-0.86257 0.0784,-1.68594 0.23525,-2.47012 0.17643,-0.78415 0.47049,-1.47029 0.88218,-2.05842 0.41168,-0.58811 0.96059,-1.05861 1.64674,-1.41149 0.68613,-0.35286 1.53891,-0.5293 2.55833,-0.52931 0.88217,1e-5 1.63692,0.19605 2.26426,0.58812 0.62732,0.37249 1.13703,0.86259 1.52912,1.4703 0.41167,0.60774 0.70573,1.30368 0.88218,2.08784 0.19603,0.76456 0.29405,1.53892 0.29406,2.32308 m -12.14471,13.20332 1.85259,0 0,-8.49835 0.0588,0 c 0.19604,0.54891 0.47049,1.02921 0.82337,1.44089 0.37247,0.41169 0.79396,0.76456 1.26446,1.05862 0.47049,0.27446 0.97039,0.4803 1.49971,0.61753 0.54891,0.13723 1.10762,0.20584 1.67615,0.20584 1.15663,0 2.15643,-0.21564 2.99942,-0.64693 0.86256,-0.43129 1.57811,-1.00961 2.14664,-1.73496 0.5685,-0.74495 0.98999,-1.59773 1.26446,-2.55833 0.27444,-0.98019 0.41167,-2.00941 0.41169,-3.08763 -2e-5,-1.07822 -0.13725,-2.09763 -0.41169,-3.05824 -0.27447,-0.98019 -0.69596,-1.83296 -1.26446,-2.55833 -0.56853,-0.74493 -1.28408,-1.33306 -2.14664,-1.76436 -0.84299,-0.43127 -1.84279,-0.64692 -2.99942,-0.64693 -1.23507,1e-5 -2.34269,0.29407 -3.32289,0.88218 -0.9606,0.58813 -1.65655,1.4017 -2.08783,2.4407 l -0.0588,0 0,-2.88179 -1.70556,0 0,20.79009"
             style=""
             id="path3052" />
          <path
             d="m 455.94249,247.72809 c -1.15665,1e-5 -2.18586,0.21566 -3.08764,0.64693 -0.88218,0.4313 -1.62714,1.00962 -2.23486,1.73496 -0.60773,0.72536 -1.06842,1.57814 -1.38209,2.55833 -0.31366,0.98021 -0.47049,2.00942 -0.47049,3.08764 0,1.09783 0.15683,2.13684 0.47049,3.11704 0.31367,0.9606 0.77436,1.80357 1.38209,2.52892 0.60772,0.72535 1.35268,1.30367 2.23486,1.73496 0.90178,0.43129 1.93099,0.64693 3.08764,0.64693 1.15663,0 2.17604,-0.21564 3.05823,-0.64693 0.90178,-0.43129 1.65653,-1.00961 2.26427,-1.73496 0.60771,-0.72535 1.06841,-1.56832 1.38208,-2.52892 0.31365,-0.9802 0.47049,-2.01921 0.4705,-3.11704 -10e-6,-1.07822 -0.15685,-2.10743 -0.4705,-3.08764 -0.31367,-0.98019 -0.77437,-1.83297 -1.38208,-2.55833 -0.60774,-0.72534 -1.36249,-1.30366 -2.26427,-1.73496 -0.88219,-0.43127 -1.9016,-0.64692 -3.05823,-0.64693 m 0,1.55852 c 0.88217,1e-5 1.65653,0.18625 2.32308,0.55871 0.66653,0.37249 1.21544,0.8626 1.64674,1.47031 0.45088,0.60773 0.78415,1.30368 0.99981,2.08783 0.23523,0.76457 0.35286,1.54873 0.35287,2.35249 -1e-5,0.80377 -0.11764,1.59773 -0.35287,2.38189 -0.21566,0.76456 -0.54893,1.4507 -0.99981,2.05842 -0.4313,0.60773 -0.98021,1.09783 -1.64674,1.47031 -0.66655,0.37247 -1.44091,0.55871 -2.32308,0.55871 -0.88219,0 -1.65655,-0.18624 -2.32308,-0.55871 -0.66654,-0.37248 -1.22526,-0.86258 -1.67615,-1.47031 -0.43129,-0.60772 -0.76456,-1.29386 -0.9998,-2.05842 -0.21565,-0.78416 -0.32347,-1.57812 -0.32347,-2.38189 0,-0.80376 0.10782,-1.58792 0.32347,-2.35249 0.23524,-0.78415 0.56851,-1.4801 0.9998,-2.08783 0.45089,-0.60771 1.00961,-1.09782 1.67615,-1.47031 0.66653,-0.37246 1.44089,-0.5587 2.32308,-0.55871"
             style=""
             id="path3054" />
          <path
             d="m 465.84315,263.34271 1.85258,0 0,-8.46895 c -1e-5,-0.78415 0.0882,-1.5193 0.26465,-2.20545 0.17644,-0.68613 0.44109,-1.27425 0.79397,-1.76437 0.37247,-0.50969 0.84297,-0.90177 1.41149,-1.17624 0.56851,-0.29405 1.25465,-0.44108 2.05842,-0.44109 0.58812,1e-5 1.08802,0.098 1.49971,0.29406 0.41168,0.19605 0.73515,0.47051 0.9704,0.82337 0.25485,0.33328 0.43128,0.73516 0.52931,1.20565 0.11762,0.4509 0.17643,0.9312 0.17644,1.4409 l 0,10.29212 1.85258,0 0,-8.58657 c -1e-5,-0.70574 0.0588,-1.38208 0.17644,-2.02902 0.13721,-0.66653 0.36266,-1.25465 0.67634,-1.76436 0.31365,-0.5097 0.73514,-0.91158 1.26446,-1.20565 0.52929,-0.31365 1.19583,-0.47049 1.99961,-0.4705 1.33306,1e-5 2.26425,0.33328 2.79358,0.99981 0.52929,0.64694 0.79394,1.59774 0.79396,2.85238 l 0,10.20391 1.85259,0 0,-10.29212 c -3e-5,-3.54832 -1.67617,-5.32249 -5.02844,-5.3225 -0.99983,1e-5 -1.94082,0.24506 -2.82299,0.73515 -0.88219,0.49011 -1.54873,1.23507 -1.99961,2.23486 -0.27447,-0.99979 -0.82338,-1.74475 -1.64674,-2.23486 -0.80377,-0.49009 -1.70556,-0.73514 -2.70536,-0.73515 -1.21546,1e-5 -2.22506,0.27447 -3.02882,0.82337 -0.80377,0.52932 -1.45071,1.25467 -1.9408,2.17605 l -0.0882,0 0,-2.55833 -1.70555,0 0,15.17353"
             style=""
             id="path3056" />
          <path
             d="m 502.51205,255.75595 c -10e-6,0.78416 -0.098,1.56833 -0.29406,2.35248 -0.17645,0.76456 -0.47051,1.4507 -0.88218,2.05843 -0.39209,0.60772 -0.9018,1.10763 -1.52911,1.49971 -0.62734,0.37247 -1.3821,0.55871 -2.26427,0.55871 -0.98021,0 -1.81338,-0.18624 -2.49952,-0.55871 -0.66654,-0.39208 -1.21545,-0.89199 -1.64674,-1.49971 -0.41169,-0.60773 -0.71555,-1.29387 -0.91159,-2.05843 -0.17644,-0.78415 -0.26465,-1.56832 -0.26465,-2.35248 0,-0.86257 0.0784,-1.68594 0.23525,-2.47012 0.17643,-0.78415 0.47049,-1.47029 0.88218,-2.05842 0.41168,-0.58811 0.96059,-1.05861 1.64674,-1.41149 0.68613,-0.35286 1.53891,-0.5293 2.55833,-0.52931 0.88217,1e-5 1.63693,0.19605 2.26427,0.58812 0.62731,0.37249 1.13702,0.86259 1.52911,1.4703 0.41167,0.60774 0.70573,1.30368 0.88218,2.08784 0.19603,0.76456 0.29405,1.53892 0.29406,2.32308 m -12.1447,13.20332 1.85258,0 0,-8.49835 0.0588,0 c 0.19604,0.54891 0.47049,1.02921 0.82337,1.44089 0.37247,0.41169 0.79396,0.76456 1.26446,1.05862 0.47049,0.27446 0.9704,0.4803 1.49971,0.61753 0.54891,0.13723 1.10762,0.20584 1.67615,0.20584 1.15663,0 2.15643,-0.21564 2.99942,-0.64693 0.86256,-0.43129 1.57811,-1.00961 2.14664,-1.73496 0.5685,-0.74495 0.98999,-1.59773 1.26446,-2.55833 0.27444,-0.98019 0.41167,-2.00941 0.41169,-3.08763 -2e-5,-1.07822 -0.13725,-2.09763 -0.41169,-3.05824 -0.27447,-0.98019 -0.69596,-1.83296 -1.26446,-2.55833 -0.56853,-0.74493 -1.28408,-1.33306 -2.14664,-1.76436 -0.84299,-0.43127 -1.84279,-0.64692 -2.99942,-0.64693 -1.23506,1e-5 -2.34269,0.29407 -3.32289,0.88218 -0.9606,0.58813 -1.65654,1.4017 -2.08783,2.4407 l -0.0588,0 0,-2.88179 -1.70555,0 0,20.79009"
             style=""
             id="path3058" />
          <path
             d="m 520.01511,256.25585 c 0.0392,-1.05861 -0.0588,-2.09763 -0.29406,-3.11705 -0.23526,-1.039 -0.62734,-1.95059 -1.17624,-2.73476 -0.52932,-0.80375 -1.22527,-1.45069 -2.08783,-1.9408 -0.86259,-0.49009 -1.90161,-0.73514 -3.11705,-0.73515 -1.21546,1e-5 -2.25447,0.23526 -3.11704,0.70574 -0.86258,0.45091 -1.56833,1.05864 -2.11724,1.82318 -0.54891,0.74497 -0.9606,1.59774 -1.23505,2.55833 -0.25486,0.96061 -0.38228,1.94081 -0.38228,2.94061 0,1.07822 0.12742,2.10744 0.38228,3.08763 0.27445,0.9606 0.68614,1.81338 1.23505,2.55833 0.54891,0.72535 1.25466,1.30367 2.11724,1.73496 0.86257,0.43129 1.90158,0.64693 3.11704,0.64693 1.92119,0 3.40129,-0.47049 4.44032,-1.41149 1.0586,-0.96059 1.78395,-2.30347 2.17605,-4.02863 l -1.85258,0 c -0.29408,1.15664 -0.82339,2.09764 -1.58793,2.82298 -0.76457,0.70575 -1.82319,1.05862 -3.17586,1.05862 -0.88219,0 -1.64674,-0.18624 -2.29367,-0.55871 -0.62734,-0.37248 -1.13704,-0.84298 -1.52912,-1.4115 -0.39208,-0.56851 -0.68614,-1.20564 -0.88218,-1.91139 -0.19604,-0.70574 -0.29406,-1.40168 -0.29406,-2.08783 l 11.67421,0 m -11.67421,-1.55852 c 0.0784,-0.68614 0.23524,-1.35267 0.4705,-1.99962 0.25485,-0.66652 0.58811,-1.24484 0.9998,-1.73495 0.41168,-0.5097 0.91159,-0.91158 1.49971,-1.20565 0.58812,-0.31365 1.26446,-0.47049 2.02902,-0.4705 0.74495,1e-5 1.41148,0.15685 1.99962,0.4705 0.58811,0.29407 1.08801,0.69595 1.4997,1.20565 0.41168,0.49011 0.72534,1.05863 0.941,1.70555 0.23524,0.64694 0.36266,1.32328 0.38228,2.02902 l -9.82163,0"
             style=""
             id="path3060" />
          <path
             d="m 526.82491,263.2839 -0.64693,1.73496 c -0.15684,0.35287 -0.30387,0.67634 -0.44109,0.9704 -0.13723,0.29406 -0.30387,0.53911 -0.4999,0.73515 -0.19605,0.21564 -0.4313,0.38228 -0.70575,0.4999 -0.25486,0.11762 -0.58812,0.17644 -0.99981,0.17644 -0.21564,0 -0.43129,-0.0196 -0.64693,-0.0588 -0.19604,-0.0196 -0.40188,-0.049 -0.61753,-0.0882 l 0,1.55852 c 0.15683,0.0588 0.33327,0.0882 0.52931,0.0882 0.21564,0.0196 0.5097,0.0392 0.88218,0.0588 0.58812,0 1.06842,-0.0588 1.4409,-0.17643 0.39208,-0.098 0.73515,-0.27447 1.02921,-0.52931 0.29406,-0.23526 0.54891,-0.56852 0.76456,-0.99981 0.23524,-0.41169 0.4901,-0.941 0.76456,-1.58793 l 6.58696,-17.49661 -1.85258,0 -4.67557,12.93867 -4.99903,-12.93867 -1.97021,0 6.05765,15.11472"
             style=""
             id="path3062" />
          <path
             d="m 548.22931,255.75595 c -1e-5,0.78416 -0.098,1.56833 -0.29406,2.35248 -0.17645,0.76456 -0.47051,1.4507 -0.88218,2.05843 -0.3921,0.60772 -0.9018,1.10763 -1.52912,1.49971 -0.62734,0.37247 -1.38209,0.55871 -2.26427,0.55871 -0.98021,0 -1.81338,-0.18624 -2.49951,-0.55871 -0.66655,-0.39208 -1.21546,-0.89199 -1.64674,-1.49971 -0.41169,-0.60773 -0.71556,-1.29387 -0.91159,-2.05843 -0.17644,-0.78415 -0.26466,-1.56832 -0.26466,-2.35248 0,-0.78416 0.0882,-1.55852 0.26466,-2.32308 0.19603,-0.78416 0.4999,-1.4801 0.91159,-2.08784 0.43128,-0.60771 0.98019,-1.09781 1.64674,-1.4703 0.68613,-0.39207 1.5193,-0.58811 2.49951,-0.58812 0.88218,1e-5 1.63693,0.19605 2.26427,0.58812 0.62732,0.37249 1.13702,0.86259 1.52912,1.4703 0.41167,0.60774 0.70573,1.30368 0.88218,2.08784 0.19603,0.76456 0.29405,1.53892 0.29406,2.32308 m -12.14471,7.58676 1.70555,0 0,-2.88179 0.0588,0 c 0.43128,1.03901 1.12722,1.85258 2.08783,2.4407 0.98019,0.58812 2.08782,0.88218 3.32288,0.88218 1.15663,0 2.15644,-0.21564 2.99942,-0.64693 0.86257,-0.43129 1.57811,-1.00961 2.14665,-1.73496 0.5685,-0.74495 0.98999,-1.59773 1.26446,-2.55833 0.27444,-0.98019 0.41167,-2.00941 0.41168,-3.08763 -1e-5,-1.07822 -0.13724,-2.09763 -0.41168,-3.05824 -0.27447,-0.98019 -0.69596,-1.83296 -1.26446,-2.55833 -0.56854,-0.74493 -1.28408,-1.33306 -2.14665,-1.76436 -0.84298,-0.43127 -1.84279,-0.64692 -2.99942,-0.64693 -0.56852,1e-5 -1.12724,0.0784 -1.67614,0.23525 -0.52932,0.13724 -1.02922,0.34308 -1.49971,0.61752 -0.47051,0.27447 -0.89199,0.61754 -1.26446,1.02922 -0.35288,0.41169 -0.62734,0.89199 -0.82337,1.44089 l -0.0588,0 0,-8.70419 -1.85258,0 0,20.99593"
             style=""
             id="path3064" />
          <path
             d="m 565.26187,248.16918 -1.85258,0 0,7.96904 c -2e-5,0.76457 -0.0882,1.51932 -0.26466,2.26427 -0.17645,0.72536 -0.4509,1.37229 -0.82337,1.9408 -0.37249,0.56852 -0.85279,1.02922 -1.4409,1.38209 -0.56852,0.33327 -1.24486,0.4999 -2.02902,0.4999 -1.47031,0 -2.50932,-0.35287 -3.11704,-1.05862 -0.58813,-0.70574 -0.90179,-1.74475 -0.94099,-3.11704 l 0,-9.88044 -1.85259,0 0,9.85103 c 0,0.88219 0.098,1.68595 0.29406,2.4113 0.19604,0.70575 0.4999,1.31347 0.91159,1.82318 0.43129,0.4901 0.9802,0.86258 1.64674,1.11743 0.68614,0.27445 1.50951,0.41168 2.47011,0.41168 1.13703,0 2.16624,-0.27445 3.08764,-0.82337 0.94098,-0.54891 1.65653,-1.33307 2.14664,-2.35248 l 0.0588,0 0,2.73476 1.70555,0 0,-15.17353"
             style=""
             id="path3066" />
          <path
             d="m 574.79403,261.60775 c -0.86258,10e-6 -1.60753,-0.16663 -2.23486,-0.4999 -0.62733,-0.35287 -1.14684,-0.80376 -1.55852,-1.35268 -0.41169,-0.56851 -0.71555,-1.21544 -0.91159,-1.9408 -0.19604,-0.72534 -0.29406,-1.4703 -0.29406,-2.23486 0,-0.78415 0.0882,-1.54871 0.26466,-2.29368 0.19603,-0.76454 0.4999,-1.44088 0.91158,-2.02901 0.41168,-0.58811 0.93119,-1.05861 1.55853,-1.4115 0.62732,-0.37246 1.38207,-0.5587 2.26426,-0.55871 0.88218,1e-5 1.62713,0.18625 2.23487,0.55871 0.62731,0.37249 1.13702,0.8626 1.52911,1.47031 0.39207,0.60773 0.67633,1.28407 0.85278,2.02902 0.17642,0.74496 0.26464,1.48991 0.26465,2.23486 -10e-6,0.76456 -0.10783,1.50952 -0.32346,2.23486 -0.19606,0.72536 -0.49992,1.37229 -0.91159,1.9408 -0.4117,0.54892 -0.9214,0.99981 -1.52912,1.35268 -0.60773,0.33327 -1.31348,0.49991 -2.11724,0.4999 m 6.73399,-13.43857 -1.85258,0 0,2.61714 -0.0588,0 c -0.37249,-0.84296 -0.99002,-1.55851 -1.85258,-2.14664 -0.86259,-0.60772 -1.85259,-0.91158 -2.97002,-0.91159 -1.09783,1e-5 -2.07803,0.20585 -2.9406,0.61752 -0.84298,0.3921 -1.55853,0.94101 -2.14665,1.64674 -0.56852,0.68616 -1.00961,1.49973 -1.32327,2.44071 -0.29406,0.9214 -0.44109,1.9016 -0.44109,2.94061 0,1.07823 0.12742,2.09764 0.38228,3.05823 0.25485,0.941 0.65673,1.76437 1.20565,2.47011 0.56851,0.70575 1.28406,1.26446 2.14664,1.67614 0.86257,0.39209 1.90159,0.58813 3.11704,0.58813 1.09782,0 2.06822,-0.28426 2.9112,-0.85278 0.84297,-0.56852 1.4801,-1.32327 1.9114,-2.26427 l 0.0588,0 0,2.05843 c -10e-6,1.86238 -0.38229,3.28367 -1.14683,4.26388 -0.76457,0.9802 -2.00943,1.4703 -3.73458,1.4703 -0.50971,0 -1.00961,-0.0588 -1.49971,-0.17643 -0.4901,-0.098 -0.941,-0.26466 -1.35268,-0.49991 -0.39208,-0.23525 -0.73515,-0.54891 -1.02921,-0.94099 -0.27446,-0.37248 -0.4607,-0.84298 -0.55871,-1.41149 l -1.85259,0 c 0.0588,0.80376 0.27446,1.4899 0.64694,2.05842 0.39208,0.58812 0.87237,1.06842 1.44089,1.4409 0.58812,0.37247 1.24486,0.64693 1.97021,0.82337 0.72535,0.17643 1.4703,0.26465 2.23486,0.26465 1.23505,0 2.27406,-0.16664 3.11705,-0.4999 0.86256,-0.33327 1.55851,-0.81357 2.08783,-1.4409 0.52929,-0.62733 0.91157,-1.39189 1.14684,-2.29367 0.25483,-0.90179 0.38226,-1.9212 0.38227,-3.05823 l 0,-13.93848"
             style=""
             id="path3068" />
          <path
             d="m 588.57628,263.34271 0,-3.11704 -2.47011,0 0,3.11704 2.47011,0"
             style=""
             id="path3070" />
          <path
             d="m 599.6417,247.72809 c -1.15665,1e-5 -2.18586,0.21566 -3.08764,0.64693 -0.88218,0.4313 -1.62714,1.00962 -2.23486,1.73496 -0.60773,0.72536 -1.06842,1.57814 -1.38208,2.55833 -0.31367,0.98021 -0.4705,2.00942 -0.4705,3.08764 0,1.09783 0.15683,2.13684 0.4705,3.11704 0.31366,0.9606 0.77435,1.80357 1.38208,2.52892 0.60772,0.72535 1.35268,1.30367 2.23486,1.73496 0.90178,0.43129 1.93099,0.64693 3.08764,0.64693 1.15663,0 2.17604,-0.21564 3.05823,-0.64693 0.90178,-0.43129 1.65653,-1.00961 2.26427,-1.73496 0.60771,-0.72535 1.06841,-1.56832 1.38209,-2.52892 0.31365,-0.9802 0.47048,-2.01921 0.47049,-3.11704 -10e-6,-1.07822 -0.15684,-2.10743 -0.47049,-3.08764 -0.31368,-0.98019 -0.77438,-1.83297 -1.38209,-2.55833 -0.60774,-0.72534 -1.36249,-1.30366 -2.26427,-1.73496 -0.88219,-0.43127 -1.9016,-0.64692 -3.05823,-0.64693 m 0,1.55852 c 0.88217,1e-5 1.65653,0.18625 2.32308,0.55871 0.66653,0.37249 1.21544,0.8626 1.64674,1.47031 0.45088,0.60773 0.78415,1.30368 0.99981,2.08783 0.23523,0.76457 0.35286,1.54873 0.35287,2.35249 -10e-6,0.80377 -0.11764,1.59773 -0.35287,2.38189 -0.21566,0.76456 -0.54893,1.4507 -0.99981,2.05842 -0.4313,0.60773 -0.98021,1.09783 -1.64674,1.47031 -0.66655,0.37247 -1.44091,0.55871 -2.32308,0.55871 -0.88219,0 -1.65655,-0.18624 -2.32308,-0.55871 -0.66654,-0.37248 -1.22526,-0.86258 -1.67615,-1.47031 -0.43129,-0.60772 -0.76456,-1.29386 -0.9998,-2.05842 -0.21565,-0.78416 -0.32347,-1.57812 -0.32347,-2.38189 0,-0.80376 0.10782,-1.58792 0.32347,-2.35249 0.23524,-0.78415 0.56851,-1.4801 0.9998,-2.08783 0.45089,-0.60771 1.00961,-1.09782 1.67615,-1.47031 0.66653,-0.37246 1.44089,-0.5587 2.32308,-0.55871"
             style=""
             id="path3072" />
          <path
             d="m 609.54236,263.34271 1.85259,0 0,-8.08667 c -10e-6,-0.78415 0.13722,-1.5193 0.41168,-2.20545 0.27445,-0.68613 0.65673,-1.27426 1.14684,-1.76437 0.5097,-0.49009 1.10762,-0.86256 1.79377,-1.11743 0.68613,-0.27444 1.45069,-0.39207 2.29367,-0.35287 l 0,-1.85258 c -1.37229,-0.0588 -2.55833,0.24506 -3.55813,0.91158 -0.98021,0.66656 -1.70556,1.61735 -2.17605,2.85239 l -0.0588,0 0,-3.55813 -1.70556,0 0,15.17353"
             style=""
             id="path3074" />
          <path
             d="m 624.9337,261.60775 c -0.86259,10e-6 -1.60754,-0.16663 -2.23486,-0.4999 -0.62734,-0.35287 -1.14685,-0.80376 -1.55853,-1.35268 -0.41169,-0.56851 -0.71555,-1.21544 -0.91158,-1.9408 -0.19605,-0.72534 -0.29407,-1.4703 -0.29407,-2.23486 0,-0.78415 0.0882,-1.54871 0.26466,-2.29368 0.19604,-0.76454 0.4999,-1.44088 0.91159,-2.02901 0.41168,-0.58811 0.93119,-1.05861 1.55852,-1.4115 0.62732,-0.37246 1.38208,-0.5587 2.26427,-0.55871 0.88217,1e-5 1.62712,0.18625 2.23486,0.55871 0.62732,0.37249 1.13702,0.8626 1.52911,1.47031 0.39207,0.60773 0.67633,1.28407 0.85278,2.02902 0.17642,0.74496 0.26464,1.48991 0.26466,2.23486 -2e-5,0.76456 -0.10784,1.50952 -0.32347,2.23486 -0.19605,0.72536 -0.49992,1.37229 -0.91159,1.9408 -0.4117,0.54892 -0.9214,0.99981 -1.52912,1.35268 -0.60773,0.33327 -1.31348,0.49991 -2.11723,0.4999 m 6.73399,-13.43857 -1.85258,0 0,2.61714 -0.0588,0 c -0.37249,-0.84296 -0.99001,-1.55851 -1.85258,-2.14664 -0.86259,-0.60772 -1.85259,-0.91158 -2.97001,-0.91159 -1.09784,1e-5 -2.07804,0.20585 -2.94061,0.61752 -0.84298,0.3921 -1.55853,0.94101 -2.14664,1.64674 -0.56852,0.68616 -1.00961,1.49973 -1.32328,2.44071 -0.29406,0.9214 -0.44109,1.9016 -0.44109,2.94061 0,1.07823 0.12743,2.09764 0.38228,3.05823 0.25485,0.941 0.65673,1.76437 1.20565,2.47011 0.56851,0.70575 1.28406,1.26446 2.14664,1.67614 0.86258,0.39209 1.90159,0.58813 3.11705,0.58813 1.09782,0 2.06821,-0.28426 2.9112,-0.85278 0.84296,-0.56852 1.48009,-1.32327 1.91139,-2.26427 l 0.0588,0 0,2.05843 c -2e-5,1.86238 -0.3823,3.28367 -1.14684,4.26388 -0.76457,0.9802 -2.00943,1.4703 -3.73457,1.4703 -0.50972,0 -1.00962,-0.0588 -1.49971,-0.17643 -0.49011,-0.098 -0.941,-0.26466 -1.35268,-0.49991 -0.39209,-0.23525 -0.73516,-0.54891 -1.02921,-0.94099 -0.27446,-0.37248 -0.4607,-0.84298 -0.55872,-1.41149 l -1.85258,0 c 0.0588,0.80376 0.27445,1.4899 0.64693,2.05842 0.39208,0.58812 0.87238,1.06842 1.4409,1.4409 0.58812,0.37247 1.24485,0.64693 1.97021,0.82337 0.72534,0.17643 1.47029,0.26465 2.23486,0.26465 1.23504,0 2.27406,-0.16664 3.11704,-0.4999 0.86257,-0.33327 1.55851,-0.81357 2.08783,-1.4409 0.5293,-0.62733 0.91158,-1.39189 1.14684,-2.29367 0.25484,-0.90179 0.38226,-1.9212 0.38228,-3.05823 l 0,-13.93848"
             style=""
             id="path3076" />
          <path
             d="m 638.71593,263.34271 0,-3.11704 -2.47011,0 0,3.11704 2.47011,0"
             style=""
             id="path3078" />
          <path
             d="m 655.66258,248.16918 -1.85258,0 0,7.96904 c -2e-5,0.76457 -0.0882,1.51932 -0.26466,2.26427 -0.17645,0.72536 -0.4509,1.37229 -0.82337,1.9408 -0.37249,0.56852 -0.85278,1.02922 -1.4409,1.38209 -0.56852,0.33327 -1.24486,0.4999 -2.02901,0.4999 -1.47031,0 -2.50933,-0.35287 -3.11705,-1.05862 -0.58812,-0.70574 -0.90179,-1.74475 -0.94099,-3.11704 l 0,-9.88044 -1.85259,0 0,9.85103 c 0,0.88219 0.098,1.68595 0.29406,2.4113 0.19604,0.70575 0.49991,1.31347 0.91159,1.82318 0.43129,0.4901 0.9802,0.86258 1.64674,1.11743 0.68614,0.27445 1.50951,0.41168 2.47011,0.41168 1.13703,0 2.16624,-0.27445 3.08764,-0.82337 0.94098,-0.54891 1.65653,-1.33307 2.14664,-2.35248 l 0.0588,0 0,2.73476 1.70555,0 0,-15.17353"
             style=""
             id="path3080" />
          <path
             d="m 659.10769,263.34271 1.85258,0 0,-5.76359 2.99942,-2.49951 5.99884,8.2631 2.32308,0 -6.91043,-9.55697 6.46934,-5.61656 -2.47011,0 -8.41014,7.35152 0,-13.17392 -1.85258,0 0,20.99593"
             style=""
             id="path3082" />
        </g>
        <path
           sodipodi:type="arc"
           style="color:#000000;fill:#ff9955;fill-opacity:1;fill-rule:nonzero;stroke:none;stroke-width:4;marker:none;visibility:visible;display:inline;overflow:visible;enable-background:accumulate"
           id="path5151"
           sodipodi:cx="169.02184"
           sodipodi:cy="718.34283"
           sodipodi:rx="20.121649"
           sodipodi:ry="20.121649"
           d="m 189.14348,718.34283 c 0,11.11288 -9.00876,20.12165 -20.12164,20.12165 -11.11288,0 -20.12165,-9.00877 -20.12165,-20.12165 0,-11.11288 9.00877,-20.12164 20.12165,-20.12164 11.11288,0 20.12164,9.00876 20.12164,20.12164 z"
           transform="matrix(0.30388108,0,0,0.30388108,143.7804,37.582767)" />
        <path
           sodipodi:type="arc"
           style="color:#000000;fill:#ff9955;fill-opacity:1;fill-rule:nonzero;stroke:none;stroke-width:4;marker:none;visibility:visible;display:inline;overflow:visible;enable-background:accumulate"
           id="path5151-9"
           sodipodi:cx="169.02184"
           sodipodi:cy="718.34283"
           sodipodi:rx="20.121649"
           sodipodi:ry="20.121649"
           d="m 189.14348,718.34283 c 0,11.11288 -9.00876,20.12165 -20.12164,20.12165 -11.11288,0 -20.12165,-9.00877 -20.12165,-20.12165 0,-11.11288 9.00877,-20.12164 20.12165,-20.12164 11.11288,0 20.12164,9.00876 20.12164,20.12164 z"
           transform="matrix(0.30388108,0,0,0.30388108,165.05315,37.582767)" />
        <path
           sodipodi:type="arc"
           style="color:#000000;fill:#ff9955;fill-opacity:1;fill-rule:nonzero;stroke:none;stroke-width:4;marker:none;visibility:visible;display:inline;overflow:visible;enable-background:accumulate"
           id="path5151-4"
           sodipodi:cx="169.02184"
           sodipodi:cy="718.34283"
           sodipodi:rx="20.121649"
           sodipodi:ry="20.121649"
           d="m 189.14348,718.34283 c 0,11.11288 -9.00876,20.12165 -20.12164,20.12165 -11.11288,0 -20.12165,-9.00877 -20.12165,-20.12165 0,-11.11288 9.00877,-20.12164 20.12165,-20.12164 11.11288,0 20.12164,9.00876 20.12164,20.12164 z"
           transform="matrix(0.30388108,0,0,0.30388108,207.59864,37.582767)" />
        <path
           sodipodi:type="arc"
           style="color:#000000;fill:#ff9955;fill-opacity:1;fill-rule:nonzero;stroke:none;stroke-width:4;marker:none;visibility:visible;display:inline;overflow:visible;enable-background:accumulate"
           id="path5151-3"
           sodipodi:cx="169.02184"
           sodipodi:cy="718.34283"
           sodipodi:rx="20.121649"
           sodipodi:ry="20.121649"
           d="m 189.14348,718.34283 c 0,11.11288 -9.00876,20.12165 -20.12164,20.12165 -11.11288,0 -20.12165,-9.00877 -20.12165,-20.12165 0,-11.11288 9.00877,-20.12164 20.12165,-20.12164 11.11288,0 20.12164,9.00876 20.12164,20.12164 z"
           transform="matrix(0.30388108,0,0,0.30388108,186.32589,37.582767)" />
        <path
           sodipodi:type="arc"
           style="color:#000000;fill:#ff9955;fill-opacity:1;fill-rule:nonzero;stroke:none;stroke-width:4;marker:none;visibility:visible;display:inline;overflow:visible;enable-background:accumulate"
           id="path5151-6"
           sodipodi:cx="169.02184"
           sodipodi:cy="718.34283"
           sodipodi:rx="20.121649"
           sodipodi:ry="20.121649"
           d="m 189.14348,718.34283 c 0,11.11288 -9.00876,20.12165 -20.12164,20.12165 -11.11288,0 -20.12165,-9.00877 -20.12165,-20.12165 0,-11.11288 9.00877,-20.12164 20.12165,-20.12164 11.11288,0 20.12164,9.00876 20.12164,20.12164 z"
           transform="matrix(0.30388108,0,0,0.30388108,250.14413,37.582767)" />
        <path
           sodipodi:type="arc"
           style="color:#000000;fill:#ff9955;fill-opacity:1;fill-rule:nonzero;stroke:none;stroke-width:4;marker:none;visibility:visible;display:inline;overflow:visible;enable-background:accumulate"
           id="path5151-48"
           sodipodi:cx="169.02184"
           sodipodi:cy="718.34283"
           sodipodi:rx="20.121649"
           sodipodi:ry="20.121649"
           d="m 189.14348,718.34283 c 0,11.11288 -9.00876,20.12165 -20.12164,20.12165 -11.11288,0 -20.12165,-9.00877 -20.12165,-20.12165 0,-11.11288 9.00877,-20.12164 20.12165,-20.12164 11.11288,0 20.12164,9.00876 20.12164,20.12164 z"
           transform="matrix(0.30388108,0,0,0.30388108,228.87138,37.582767)" />
        <path
           sodipodi:type="arc"
           style="color:#000000;fill:#ff9955;fill-opacity:1;fill-rule:nonzero;stroke:none;stroke-width:4;marker:none;visibility:visible;display:inline;overflow:visible;enable-background:accumulate"
           id="path5151-8"
           sodipodi:cx="169.02184"
           sodipodi:cy="718.34283"
           sodipodi:rx="20.121649"
           sodipodi:ry="20.121649"
           d="m 189.14348,718.34283 c 0,11.11288 -9.00876,20.12165 -20.12164,20.12165 -11.11288,0 -20.12165,-9.00877 -20.12165,-20.12165 0,-11.11288 9.00877,-20.12164 20.12165,-20.12164 11.11288,0 20.12164,9.00876 20.12164,20.12164 z"
           transform="matrix(0.30388108,0,0,0.30388108,292.6896,37.582767)" />
        <path
           sodipodi:type="arc"
           style="color:#000000;fill:#ff9955;fill-opacity:1;fill-rule:nonzero;stroke:none;stroke-width:4;marker:none;visibility:visible;display:inline;overflow:visible;enable-background:accumulate"
           id="path5151-7"
           sodipodi:cx="169.02184"
           sodipodi:cy="718.34283"
           sodipodi:rx="20.121649"
           sodipodi:ry="20.121649"
           d="m 189.14348,718.34283 c 0,11.11288 -9.00876,20.12165 -20.12164,20.12165 -11.11288,0 -20.12165,-9.00877 -20.12165,-20.12165 0,-11.11288 9.00877,-20.12164 20.12165,-20.12164 11.11288,0 20.12164,9.00876 20.12164,20.12164 z"
           transform="matrix(0.30388108,0,0,0.30388108,271.41688,37.582767)" />
      </g>
      <g
         inkscape:export-ydpi="300"
         inkscape:export-xdpi="300"
         inkscape:export-filename="/Users/jas/Documents/Documents/Cycling/Cycle Forum/Graphics/Logos/Star and Crescent/star_cres_inv.png"
         transform="matrix(0.46937241,0,0,0.46937241,-579.7363,-178.41117)"
         id="g3423-9-0-8">
        <path
           style="color:#000000;fill:#e6e6e6;stroke:#89a02c;stroke-width:8.48134041;stroke-linecap:square;stroke-linejoin:miter;stroke-miterlimit:4;stroke-opacity:1;stroke-dashoffset:0;marker:none;visibility:visible;display:inline;overflow:visible;enable-background:accumulate"
           d="m 1373.2271,798.58972 c -36.1416,0.52434 -72.9803,34.12896 -72.9803,75.66011 0,41.96109 41.679,76.07225 72.9803,75.56845 4.4223,-0.0738 8.0153,-0.15491 11.6819,0 31.1764,-1.01378 113.9752,-16.32788 138.8063,-20.21323 26.1819,-4.08818 47.4024,-23.57527 47.4024,-52.64509 0,-28.44266 -16.1249,-47.73686 -45.7239,-52.61394 -29.5989,-4.87709 -125.2411,-25.50852 -138.5646,-25.7563 -7.8636,-0.24777 -6.8438,-0.095 -13.6021,0 z"
           id="path7625-1-6-5-9-6-9-5"
           sodipodi:nodetypes="cscccszcs"
           inkscape:connector-curvature="0" />
        <path
           style="color:#000000;fill:#ff6600;stroke:none;stroke-width:9.94705677;marker:none;visibility:visible;display:inline;overflow:visible;enable-background:accumulate"
           d="m 1374.7232,810.4081 c 15.4426,-0.29294 28.8318,4.22886 40.4544,13.6603 6.0388,4.9003 11.8984,12.15418 10.7656,13.31709 -0.3419,0.35102 -3.5659,-0.94914 -7.1547,-2.88308 -5.7396,-3.09289 -7.8294,-3.52532 -17.4857,-3.5352 -9.5321,-0.01 -11.8965,0.4633 -17.8535,3.46656 -9.0676,4.57142 -17.0804,13.49788 -20.5281,22.89303 -3.8868,10.59152 -3.1957,27.07105 1.5379,36.51903 4.1327,8.24869 10.1252,14.41696 18.2547,18.80867 5.6401,3.04695 7.6823,3.42675 17.9537,3.43224 10.2861,0.006 12.3535,-0.37845 18.1878,-3.46656 3.615,-1.91344 6.8333,-3.21313 7.1548,-2.88308 0.3215,0.33001 -2.6067,4.02776 -6.4861,8.20305 -17.0236,18.322 -44.7544,24.1099 -65.9308,13.76328 -15.5455,-7.59544 -29.4459,-25.22127 -34.0018,-43.17757 -5.4379,-21.43249 1.6763,-45.50772 18.2881,-61.88327 10.5095,-10.36012 20.9469,-15.33728 33.7344,-16.09721 1.0479,-0.0623 2.0797,-0.11776 3.1093,-0.13728 z"
           id="path7980-4-3-3-6-6"
           inkscape:connector-curvature="0" />
        <path
           style="color:#000000;fill:#ff6600;stroke:none;stroke-width:14.36305237;marker:none;visibility:visible;display:inline;overflow:visible;enable-background:accumulate"
           d="m 1519.3857,835.54749 c -21.6339,0 -39.1563,18.09155 -39.1563,40.40625 0,22.3147 17.5224,40.375 39.1563,40.375 21.6339,0 39.1875,-18.0603 39.1875,-40.375 0,-22.3147 -17.5536,-40.40625 -39.1875,-40.40625 z m 0.7812,8.375 c 0.7747,0.0934 0.992,2.0669 0.8438,6.15625 -0.092,2.52701 0.6929,6.69221 1.8125,9.5 2.3134,5.80176 4.2482,6.14588 8.5312,1.53125 3.1453,-3.38875 5.1657,-4.51059 9.5625,-5.34375 3.6613,-0.69379 4.239,0.21539 1.2813,2.0625 -1.0871,0.6789 -2.8563,2.97436 -3.9375,5.09375 -1.0813,2.11939 -3.1383,4.62932 -4.5625,5.5625 -4.2579,2.78988 -2.0684,3.94259 6.125,3.25 6.2795,-0.53081 7.9227,-0.31437 11.3437,1.46875 3.9895,2.07945 5.1275,3.75128 2.75,4.03125 -0.6875,0.081 -3.5,0.26218 -6.25,0.40625 -2.75,0.14408 -7.6683,0.87119 -10.9375,1.625 l -5.9375,1.375 2.9375,2.71875 c 1.6136,1.49616 3.2496,2.71875 3.625,2.71875 0.3755,0 1.2159,1.6875 1.875,3.75 0.6591,2.0625 1.579,4.19625 2.0625,4.71875 1.2008,1.29747 1.1281,3.53125 -0.125,3.53125 -0.5623,0 -2.9248,-1.71738 -5.25,-3.84375 -2.3252,-2.12638 -5.7711,-4.66176 -7.6562,-5.625 -3.2942,-1.68319 -3.4907,-1.6698 -4.8125,0.125 -0.9612,1.30511 -1.1679,3.26408 -0.7188,6.5625 0.5132,3.76901 0.2424,5.27973 -1.3125,7.5 -1.0709,1.52916 -2.1535,3.45209 -2.4062,4.25 -0.8692,2.74415 -2.2048,-1.06491 -1.9688,-5.625 0.1408,-2.7187 -0.5148,-5.66587 -1.7812,-8.0625 -1.0974,-2.07672 -2.215,-4.56875 -2.5,-5.53125 -0.7796,-2.63265 -2.0447,-2.17837 -7.5938,2.75 -3.6661,3.256 -5.9035,4.5 -8.125,4.5 l -3.0625,0 3.0938,-3.53125 c 1.7069,-1.94413 3.0937,-4.10251 3.0937,-4.8125 0,-0.70999 1.1107,-2.34918 2.4688,-3.625 1.358,-1.27582 2.2592,-2.6862 1.9687,-3.15625 -0.721,-1.16662 -6.7153,-1.10006 -9.9375,0.125 -2.1663,0.82365 -3.4146,0.53114 -7.0937,-1.625 -5.4995,-3.2229 -5.2223,-4.98343 0.7187,-4.5625 2.4158,0.17116 5.95,-0.13103 7.875,-0.6875 1.925,-0.55647 4.7375,-1.28109 6.25,-1.59375 3.5631,-0.73657 3.5133,-2.60763 -0.1875,-5.34375 -1.8087,-1.33727 -3.3807,-3.70922 -4.0312,-6.125 -0.5859,-2.17579 -1.4962,-4.23181 -2.0313,-4.5625 -1.5079,-0.93196 -1.1619,-2.5 0.5625,-2.5 0.8523,0 3.1053,1.50366 5,3.34375 1.8947,1.84009 5.2864,4.17522 7.5313,5.1875 5.0837,2.29242 6.2372,1.13365 5.5312,-5.59375 -0.4041,-3.85106 -0.02,-5.30382 2.4063,-8.96875 1.4167,-2.14004 2.3662,-3.19766 2.9687,-3.125 z"
           id="path7984-8-8-8-3-1"
           inkscape:connector-curvature="0" />
      </g>
    </g>
  </g>
</svg>
